<svg width="137" height="48" viewBox="0 0 137 48" fill="none" xmlns="http://www.w3.org/2000/svg">
<g filter="url(#filter0_d_91_345)">
<path d="M30.8684 11.5V29.5H40.8684" stroke="#FFC062" stroke-width="5" stroke-linecap="round" stroke-linejoin="round"/>
<path d="M24.8684 11.5H12.8684V24.1667M12.8684 24.1667H24.8684M12.8684 24.1667V35.5" stroke="#3894A3" stroke-width="5" stroke-linecap="round" stroke-linejoin="round"/>
<path d="M53.8684 10.5H44.8684V20.7703M44.8684 20.7703H53.8684M44.8684 20.7703V30.5H53.8684" stroke="white" stroke-width="4" stroke-linecap="round" stroke-linejoin="round"/>
<path d="M57.1265 7.20495L57.4937 7.95135C57.9556 8.89029 58.5651 9.74908 59.2989 10.495V10.495C59.6244 10.8258 59.973 11.133 60.3421 11.4144L66.1749 15.8607L70.4329 19.1066M85.8684 28.8443L83.2071 28.3033L81.6103 27.7623L81.1445 27.6045C80.3915 27.3494 79.6578 27.0405 78.9491 26.6803V26.6803V26.6803C78.244 26.322 77.6017 25.8519 77.0471 25.2882L76.4734 24.7051C75.9956 24.2195 75.4785 23.7743 74.9272 23.3741L74.2059 22.8504C72.7637 21.8034 71.4911 20.5406 70.4329 19.1066V19.1066M70.4329 19.1066V19.1066C74.6419 16.9676 78.3422 13.9495 81.2836 10.2564L85.8684 4.5M70.4329 19.1066L68.9562 26.9113C68.3748 29.9842 64.9465 31.5768 62.2232 30.0391V30.0391C60.0053 28.7868 57.1917 29.5906 55.9701 31.8255L52.8684 37.5" stroke="url(#paint0_linear_91_345)" stroke-width="5" stroke-linecap="round" stroke-linejoin="round"/>
</g>
<circle cx="105.479" cy="20.667" r="16" fill="white"/>
<g filter="url(#filter1_d_91_345)">
<path d="M94.8725 15.8629L109.521 10.1555L115.632 24.7808M94.8725 15.8629L100.817 30.4169L115.632 24.7808M94.8725 15.8629L115.632 24.7808" stroke="url(#paint1_linear_91_345)" stroke-linecap="square" stroke-linejoin="round"/>
<path d="M109.521 10.1558L100.746 30.5833" stroke="url(#paint2_linear_91_345)" stroke-linecap="square" stroke-linejoin="round"/>
<g filter="url(#filter2_d_91_345)">
<path d="M93.5208 14.5431L95.2581 15.2801L94.9613 17.975L93.2438 17.0585L93.5208 14.5431Z" fill="url(#paint3_linear_91_345)"/>
<path d="M95.2581 15.2801L97.1142 14.9389L96.8371 17.4543L94.9613 17.975L95.2581 15.2801Z" fill="url(#paint4_linear_91_345)"/>
<path d="M95.3769 14.2021L97.1142 14.9389L95.2581 15.2801L93.5208 14.5431L95.3769 14.2021Z" fill="url(#paint5_linear_91_345)"/>
<path d="M93.2972 17.0303L93.5632 14.6154L95.2044 15.3116L94.9196 17.8962L93.2972 17.0303ZM96.9412 14.9199L95.2638 15.2282L93.6938 14.5622L95.3712 14.2539L96.9412 14.9199ZM95.3038 15.3225L97.0571 15.0003L96.7911 17.4152L95.019 17.9071L95.3038 15.3225Z" stroke="#6297FF" stroke-width="0.1"/>
</g>
<g filter="url(#filter3_d_91_345)">
<path d="M99.5432 28.9245L101.278 29.6684L100.97 32.3622L99.256 31.4387L99.5432 28.9245Z" fill="url(#paint6_linear_91_345)"/>
<path d="M101.278 29.6684L103.135 29.3347L102.848 31.8489L100.97 32.3622L101.278 29.6684Z" fill="url(#paint7_linear_91_345)"/>
<path d="M101.401 28.5909L103.135 29.3347L101.278 29.6684L99.5432 28.9245L101.401 28.5909Z" fill="url(#paint8_linear_91_345)"/>
<path d="M99.3095 31.4107L99.5853 28.9969L101.224 29.6997L100.929 32.2831L99.3095 31.4107ZM102.962 29.315L101.283 29.6165L99.7161 28.9442L101.395 28.6427L102.962 29.315ZM101.323 29.711L103.078 29.3958L102.802 31.8096L101.028 32.2945L101.323 29.711Z" stroke="#6297FF" stroke-width="0.1"/>
</g>
<g filter="url(#filter4_d_91_345)">
<path d="M113.591 21.9558L116.075 23.0346L115.617 26.8994L113.163 25.563L113.591 21.9558Z" fill="url(#paint9_linear_91_345)"/>
<path d="M116.075 23.0346L118.744 22.5674L118.316 26.1746L115.617 26.8994L116.075 23.0346Z" fill="url(#paint10_linear_91_345)"/>
<path d="M116.259 21.4887L118.744 22.5674L116.075 23.0346L113.591 21.9558L116.259 21.4887Z" fill="url(#paint11_linear_91_345)"/>
<path d="M113.216 25.5352L113.632 22.0284L116.021 23.0656L115.576 26.8201L113.216 25.5352ZM118.571 22.5469L116.082 22.9827L113.763 21.9763L116.253 21.5405L118.571 22.5469ZM116.121 23.0774L118.686 22.6282L118.27 26.1351L115.675 26.8319L116.121 23.0774Z" stroke="#6297FF" stroke-width="0.1"/>
</g>
<g filter="url(#filter5_d_91_345)">
<path d="M107.661 8.97932L109.446 9.59205L109.34 12.3013L107.562 11.5079L107.661 8.97932Z" fill="url(#paint12_linear_91_345)"/>
<path d="M109.446 9.59205L111.274 9.12106L111.174 11.6497L109.34 12.3013L109.446 9.59205Z" fill="url(#paint13_linear_91_345)"/>
<path d="M109.489 8.50837L111.274 9.12106L109.446 9.59205L107.661 8.97932L109.489 8.50837Z" fill="url(#paint14_linear_91_345)"/>
<path d="M107.613 11.4761L107.709 9.04843L109.395 9.62726L109.293 12.2255L107.613 11.4761ZM111.1 9.11424L109.448 9.53989L107.835 8.98614L109.487 8.56053L111.1 9.11424ZM109.495 9.63119L111.221 9.18625L111.126 11.6139L109.393 12.2294L109.495 9.63119Z" stroke="#6297FF" stroke-width="0.1"/>
</g>
<g filter="url(#filter6_d_91_345)">
<path d="M102.726 17.2861L105.722 18.4833L105.312 23.1014L102.343 21.5963L102.726 17.2861Z" fill="url(#paint15_linear_91_345)"/>
<path d="M105.722 18.4833L108.883 17.8333L108.5 22.1435L105.312 23.1014L105.722 18.4833Z" fill="url(#paint16_linear_91_345)"/>
<path d="M105.887 16.6361L108.883 17.8333L105.722 18.4833L102.726 17.2861L105.887 16.6361Z" fill="url(#paint17_linear_91_345)"/>
<path d="M102.396 21.567L102.77 17.3575L105.669 18.516L105.269 23.0234L102.396 21.567ZM108.71 17.8179L105.727 18.4313L102.899 17.3015L105.882 16.6881L108.71 17.8179ZM105.769 18.5248L108.827 17.8958L108.453 22.1053L105.368 23.0322L105.769 18.5248Z" stroke="#6297FF" stroke-width="0.1"/>
</g>
</g>
<defs>
<filter id="filter0_d_91_345" x="6.36841" y="2" width="86.0005" height="46.0005" filterUnits="userSpaceOnUse" color-interpolation-filters="sRGB">
<feFlood flood-opacity="0" result="BackgroundImageFix"/>
<feColorMatrix in="SourceAlpha" type="matrix" values="0 0 0 0 0 0 0 0 0 0 0 0 0 0 0 0 0 0 127 0" result="hardAlpha"/>
<feOffset dy="4"/>
<feGaussianBlur stdDeviation="2"/>
<feComposite in2="hardAlpha" operator="out"/>
<feColorMatrix type="matrix" values="0 0 0 0 0.629167 0 0 0 0 0.597708 0 0 0 0 0.597708 0 0 0 0.25 0"/>
<feBlend mode="normal" in2="BackgroundImageFix" result="effect1_dropShadow_91_345"/>
<feBlend mode="normal" in="SourceGraphic" in2="effect1_dropShadow_91_345" result="shape"/>
</filter>
<filter id="filter1_d_91_345" x="89.2438" y="4.5083" width="33.4999" height="31.8538" filterUnits="userSpaceOnUse" color-interpolation-filters="sRGB">
<feFlood flood-opacity="0" result="BackgroundImageFix"/>
<feColorMatrix in="SourceAlpha" type="matrix" values="0 0 0 0 0 0 0 0 0 0 0 0 0 0 0 0 0 0 127 0" result="hardAlpha"/>
<feOffset/>
<feGaussianBlur stdDeviation="2"/>
<feComposite in2="hardAlpha" operator="out"/>
<feColorMatrix type="matrix" values="0 0 0 0 0.592157 0 0 0 0 0.278431 0 0 0 0 1 0 0 0 0.4 0"/>
<feBlend mode="normal" in2="BackgroundImageFix" result="effect1_dropShadow_91_345"/>
<feBlend mode="normal" in="SourceGraphic" in2="effect1_dropShadow_91_345" result="shape"/>
</filter>
<filter id="filter2_d_91_345" x="85.2438" y="6.20215" width="19.8704" height="19.7729" filterUnits="userSpaceOnUse" color-interpolation-filters="sRGB">
<feFlood flood-opacity="0" result="BackgroundImageFix"/>
<feColorMatrix in="SourceAlpha" type="matrix" values="0 0 0 0 0 0 0 0 0 0 0 0 0 0 0 0 0 0 127 0" result="hardAlpha"/>
<feOffset/>
<feGaussianBlur stdDeviation="4"/>
<feComposite in2="hardAlpha" operator="out"/>
<feColorMatrix type="matrix" values="0 0 0 0 1 0 0 0 0 1 0 0 0 0 1 0 0 0 1 0"/>
<feBlend mode="normal" in2="BackgroundImageFix" result="effect1_dropShadow_91_345"/>
<feBlend mode="normal" in="SourceGraphic" in2="effect1_dropShadow_91_345" result="shape"/>
</filter>
<filter id="filter3_d_91_345" x="91.256" y="20.5908" width="19.8789" height="19.7712" filterUnits="userSpaceOnUse" color-interpolation-filters="sRGB">
<feFlood flood-opacity="0" result="BackgroundImageFix"/>
<feColorMatrix in="SourceAlpha" type="matrix" values="0 0 0 0 0 0 0 0 0 0 0 0 0 0 0 0 0 0 127 0" result="hardAlpha"/>
<feOffset/>
<feGaussianBlur stdDeviation="4"/>
<feComposite in2="hardAlpha" operator="out"/>
<feColorMatrix type="matrix" values="0 0 0 0 1 0 0 0 0 1 0 0 0 0 1 0 0 0 1 0"/>
<feBlend mode="normal" in2="BackgroundImageFix" result="effect1_dropShadow_91_345"/>
<feBlend mode="normal" in="SourceGraphic" in2="effect1_dropShadow_91_345" result="shape"/>
</filter>
<filter id="filter4_d_91_345" x="105.163" y="13.4888" width="21.5812" height="21.4106" filterUnits="userSpaceOnUse" color-interpolation-filters="sRGB">
<feFlood flood-opacity="0" result="BackgroundImageFix"/>
<feColorMatrix in="SourceAlpha" type="matrix" values="0 0 0 0 0 0 0 0 0 0 0 0 0 0 0 0 0 0 127 0" result="hardAlpha"/>
<feOffset/>
<feGaussianBlur stdDeviation="4"/>
<feComposite in2="hardAlpha" operator="out"/>
<feColorMatrix type="matrix" values="0 0 0 0 1 0 0 0 0 1 0 0 0 0 1 0 0 0 1 0"/>
<feBlend mode="normal" in2="BackgroundImageFix" result="effect1_dropShadow_91_345"/>
<feBlend mode="normal" in="SourceGraphic" in2="effect1_dropShadow_91_345" result="shape"/>
</filter>
<filter id="filter5_d_91_345" x="99.5621" y="0.508301" width="19.7115" height="19.793" filterUnits="userSpaceOnUse" color-interpolation-filters="sRGB">
<feFlood flood-opacity="0" result="BackgroundImageFix"/>
<feColorMatrix in="SourceAlpha" type="matrix" values="0 0 0 0 0 0 0 0 0 0 0 0 0 0 0 0 0 0 127 0" result="hardAlpha"/>
<feOffset/>
<feGaussianBlur stdDeviation="4"/>
<feComposite in2="hardAlpha" operator="out"/>
<feColorMatrix type="matrix" values="0 0 0 0 1 0 0 0 0 1 0 0 0 0 1 0 0 0 1 0"/>
<feBlend mode="normal" in2="BackgroundImageFix" result="effect1_dropShadow_91_345"/>
<feBlend mode="normal" in="SourceGraphic" in2="effect1_dropShadow_91_345" result="shape"/>
</filter>
<filter id="filter6_d_91_345" x="94.3428" y="8.63623" width="22.5404" height="22.4651" filterUnits="userSpaceOnUse" color-interpolation-filters="sRGB">
<feFlood flood-opacity="0" result="BackgroundImageFix"/>
<feColorMatrix in="SourceAlpha" type="matrix" values="0 0 0 0 0 0 0 0 0 0 0 0 0 0 0 0 0 0 127 0" result="hardAlpha"/>
<feOffset/>
<feGaussianBlur stdDeviation="4"/>
<feComposite in2="hardAlpha" operator="out"/>
<feColorMatrix type="matrix" values="0 0 0 0 1 0 0 0 0 1 0 0 0 0 1 0 0 0 1 0"/>
<feBlend mode="normal" in2="BackgroundImageFix" result="effect1_dropShadow_91_345"/>
<feBlend mode="normal" in="SourceGraphic" in2="effect1_dropShadow_91_345" result="shape"/>
</filter>
<linearGradient id="paint0_linear_91_345" x1="46.3319" y1="20.7295" x2="87.7088" y2="20.7295" gradientUnits="userSpaceOnUse">
<stop stop-color="#9747FF"/>
<stop offset="1" stop-color="#FFC289"/>
</linearGradient>
<linearGradient id="paint1_linear_91_345" x1="90.7605" y1="14.0965" x2="116.79" y2="25.2782" gradientUnits="userSpaceOnUse">
<stop stop-color="#3894A3"/>
<stop offset="1" stop-color="#A661FF"/>
</linearGradient>
<linearGradient id="paint2_linear_91_345" x1="104.952" y1="20.2913" x2="106.104" y2="20.7862" gradientUnits="userSpaceOnUse">
<stop stop-color="#3894A3"/>
<stop offset="1" stop-color="#A661FF"/>
</linearGradient>
<linearGradient id="paint3_linear_91_345" x1="92.6607" y1="15.8122" x2="97.1661" y2="16.3085" gradientUnits="userSpaceOnUse">
<stop stop-color="#3894A3"/>
<stop offset="1" stop-color="#A661FF"/>
</linearGradient>
<linearGradient id="paint4_linear_91_345" x1="92.6607" y1="15.8122" x2="97.1661" y2="16.3085" gradientUnits="userSpaceOnUse">
<stop stop-color="#3894A3"/>
<stop offset="1" stop-color="#A661FF"/>
</linearGradient>
<linearGradient id="paint5_linear_91_345" x1="92.6607" y1="15.8122" x2="97.1661" y2="16.3085" gradientUnits="userSpaceOnUse">
<stop stop-color="#3894A3"/>
<stop offset="1" stop-color="#A661FF"/>
</linearGradient>
<linearGradient id="paint6_linear_91_345" x1="98.6779" y1="30.1901" x2="103.181" y2="30.7045" gradientUnits="userSpaceOnUse">
<stop stop-color="#3894A3"/>
<stop offset="1" stop-color="#A661FF"/>
</linearGradient>
<linearGradient id="paint7_linear_91_345" x1="98.6779" y1="30.1901" x2="103.181" y2="30.7045" gradientUnits="userSpaceOnUse">
<stop stop-color="#3894A3"/>
<stop offset="1" stop-color="#A661FF"/>
</linearGradient>
<linearGradient id="paint8_linear_91_345" x1="98.6779" y1="30.1901" x2="103.181" y2="30.7045" gradientUnits="userSpaceOnUse">
<stop stop-color="#3894A3"/>
<stop offset="1" stop-color="#A661FF"/>
</linearGradient>
<linearGradient id="paint9_linear_91_345" x1="112.341" y1="23.7671" x2="118.802" y2="24.5339" gradientUnits="userSpaceOnUse">
<stop stop-color="#3894A3"/>
<stop offset="1" stop-color="#A661FF"/>
</linearGradient>
<linearGradient id="paint10_linear_91_345" x1="112.341" y1="23.7671" x2="118.802" y2="24.5339" gradientUnits="userSpaceOnUse">
<stop stop-color="#3894A3"/>
<stop offset="1" stop-color="#A661FF"/>
</linearGradient>
<linearGradient id="paint11_linear_91_345" x1="112.341" y1="23.7671" x2="118.802" y2="24.5339" gradientUnits="userSpaceOnUse">
<stop stop-color="#3894A3"/>
<stop offset="1" stop-color="#A661FF"/>
</linearGradient>
<linearGradient id="paint12_linear_91_345" x1="106.893" y1="10.3059" x2="111.422" y2="10.4836" gradientUnits="userSpaceOnUse">
<stop stop-color="#3894A3"/>
<stop offset="1" stop-color="#A661FF"/>
</linearGradient>
<linearGradient id="paint13_linear_91_345" x1="106.893" y1="10.3059" x2="111.422" y2="10.4836" gradientUnits="userSpaceOnUse">
<stop stop-color="#3894A3"/>
<stop offset="1" stop-color="#A661FF"/>
</linearGradient>
<linearGradient id="paint14_linear_91_345" x1="106.893" y1="10.3059" x2="111.422" y2="10.4836" gradientUnits="userSpaceOnUse">
<stop stop-color="#3894A3"/>
<stop offset="1" stop-color="#A661FF"/>
</linearGradient>
<linearGradient id="paint15_linear_91_345" x1="101.301" y1="19.4868" x2="109.021" y2="20.1728" gradientUnits="userSpaceOnUse">
<stop stop-color="#3894A3"/>
<stop offset="1" stop-color="#A661FF"/>
</linearGradient>
<linearGradient id="paint16_linear_91_345" x1="101.301" y1="19.4868" x2="109.021" y2="20.1728" gradientUnits="userSpaceOnUse">
<stop stop-color="#3894A3"/>
<stop offset="1" stop-color="#A661FF"/>
</linearGradient>
<linearGradient id="paint17_linear_91_345" x1="101.301" y1="19.4868" x2="109.021" y2="20.1728" gradientUnits="userSpaceOnUse">
<stop stop-color="#3894A3"/>
<stop offset="1" stop-color="#A661FF"/>
</linearGradient>
</defs>
</svg>
