<svg width="42" height="41" viewBox="0 0 42 41" fill="none" xmlns="http://www.w3.org/2000/svg">
<circle cx="20.6102" cy="20.667" r="16" fill="white"/>
<g filter="url(#filter0_d_179_312)">
<path d="M10.0041 15.8629L24.6529 10.1555L30.7638 24.7808M10.0041 15.8629L15.949 30.4169L30.7638 24.7808M10.0041 15.8629L30.7638 24.7808" stroke="url(#paint0_linear_179_312)" stroke-linecap="square" stroke-linejoin="round"/>
<path d="M24.6529 10.1558L15.8776 30.5833" stroke="url(#paint1_linear_179_312)" stroke-linecap="square" stroke-linejoin="round"/>
<g filter="url(#filter1_d_179_312)">
<path d="M8.65244 14.5431L10.3897 15.2801L10.0929 17.975L8.37536 17.0585L8.65244 14.5431Z" fill="url(#paint2_linear_179_312)"/>
<path d="M10.3897 15.2801L12.2458 14.9389L11.9687 17.4543L10.0929 17.975L10.3897 15.2801Z" fill="url(#paint3_linear_179_312)"/>
<path d="M10.5085 14.2021L12.2458 14.9389L10.3897 15.2801L8.65244 14.5431L10.5085 14.2021Z" fill="url(#paint4_linear_179_312)"/>
<path d="M8.42877 17.0303L8.69478 14.6154L10.3359 15.3116L10.0512 17.8962L8.42877 17.0303ZM10.1506 17.9071L10.4353 15.3225L12.1887 15.0003L11.9227 17.4152L10.1506 17.9071ZM8.8254 14.5622L10.5028 14.2539L12.0728 14.9199L10.3954 15.2282L8.8254 14.5622Z" stroke="#6297FF" stroke-width="0.1"/>
</g>
<g filter="url(#filter2_d_179_312)">
<path d="M14.6748 28.9245L16.4091 29.6684L16.1014 32.3622L14.3876 31.4387L14.6748 28.9245Z" fill="url(#paint5_linear_179_312)"/>
<path d="M16.4091 29.6684L18.2665 29.3347L17.9793 31.8489L16.1014 32.3622L16.4091 29.6684Z" fill="url(#paint6_linear_179_312)"/>
<path d="M16.5322 28.5909L18.2665 29.3347L16.4091 29.6684L14.6748 28.9245L16.5322 28.5909Z" fill="url(#paint7_linear_179_312)"/>
<path d="M14.4411 31.4107L14.7169 28.9969L16.3552 29.6997L16.0601 32.2831L14.4411 31.4107ZM16.1595 32.2945L16.4546 29.711L18.2092 29.3958L17.9335 31.8096L16.1595 32.2945ZM14.8477 28.9442L16.5263 28.6427L18.0936 29.315L16.415 29.6165L14.8477 28.9442Z" stroke="#6297FF" stroke-width="0.1"/>
</g>
<g filter="url(#filter3_d_179_312)">
<path d="M28.7222 21.956L31.207 23.0348L30.7483 26.8996L28.2941 25.5632L28.7222 21.956Z" fill="url(#paint8_linear_179_312)"/>
<path d="M31.207 23.0348L33.8753 22.5676L33.4472 26.1748L30.7483 26.8996L31.207 23.0348Z" fill="url(#paint9_linear_179_312)"/>
<path d="M31.3905 21.4889L33.8753 22.5676L31.207 23.0348L28.7222 21.956L31.3905 21.4889Z" fill="url(#paint10_linear_179_312)"/>
<path d="M28.3477 25.5355L28.764 22.0287L31.153 23.0659L30.7074 26.8204L28.3477 25.5355ZM30.8067 26.8322L31.2523 23.0777L33.8177 22.6285L33.4015 26.1353L30.8067 26.8322ZM28.895 21.9765L31.3843 21.5407L33.7025 22.5471L31.2132 22.983L28.895 21.9765Z" stroke="#6297FF" stroke-width="0.1"/>
</g>
<g filter="url(#filter4_d_179_312)">
<path d="M22.7929 8.97932L24.5778 9.59205L24.4715 12.3013L22.6937 11.5079L22.7929 8.97932Z" fill="url(#paint11_linear_179_312)"/>
<path d="M24.5778 9.59205L26.4052 9.12106L26.306 11.6497L24.4715 12.3013L24.5778 9.59205Z" fill="url(#paint12_linear_179_312)"/>
<path d="M24.6203 8.50837L26.4052 9.12106L24.5778 9.59205L22.7929 8.97932L24.6203 8.50837Z" fill="url(#paint13_linear_179_312)"/>
<path d="M22.745 11.4761L22.8402 9.04843L24.5264 9.62726L24.4244 12.2255L22.745 11.4761ZM24.5243 12.2294L24.6263 9.63119L26.3526 9.18625L26.2573 11.6139L24.5243 12.2294ZM22.9668 8.98614L24.6183 8.56053L26.2313 9.11424L24.5798 9.53989L22.9668 8.98614Z" stroke="#6297FF" stroke-width="0.1"/>
</g>
<g filter="url(#filter5_d_179_312)">
<path d="M17.8574 17.2861L20.8541 18.4833L20.4437 23.1014L17.4744 21.5963L17.8574 17.2861Z" fill="url(#paint14_linear_179_312)"/>
<path d="M20.8541 18.4833L24.0148 17.8333L23.6318 22.1435L20.4437 23.1014L20.8541 18.4833Z" fill="url(#paint15_linear_179_312)"/>
<path d="M21.0182 16.6361L24.0148 17.8333L20.8541 18.4833L17.8574 17.2861L21.0182 16.6361Z" fill="url(#paint16_linear_179_312)"/>
<path d="M17.5272 21.567L17.9013 17.3575L20.801 18.516L20.4004 23.0234L17.5272 21.567ZM20.5 23.0322L20.9006 18.5248L23.9591 17.8958L23.585 22.1053L20.5 23.0322ZM18.0308 17.3015L21.0136 16.6881L23.8415 17.8179L20.8587 18.4313L18.0308 17.3015Z" stroke="#6297FF" stroke-width="0.1"/>
</g>
</g>
<defs>
<filter id="filter0_d_179_312" x="4.37537" y="4.5083" width="33.4999" height="31.854" filterUnits="userSpaceOnUse" color-interpolation-filters="sRGB">
<feFlood flood-opacity="0" result="BackgroundImageFix"/>
<feColorMatrix in="SourceAlpha" type="matrix" values="0 0 0 0 0 0 0 0 0 0 0 0 0 0 0 0 0 0 127 0" result="hardAlpha"/>
<feOffset/>
<feGaussianBlur stdDeviation="2"/>
<feComposite in2="hardAlpha" operator="out"/>
<feColorMatrix type="matrix" values="0 0 0 0 0.592157 0 0 0 0 0.278431 0 0 0 0 1 0 0 0 0.4 0"/>
<feBlend mode="normal" in2="BackgroundImageFix" result="effect1_dropShadow_179_312"/>
<feBlend mode="normal" in="SourceGraphic" in2="effect1_dropShadow_179_312" result="shape"/>
</filter>
<filter id="filter1_d_179_312" x="0.375366" y="6.20215" width="19.8704" height="19.7729" filterUnits="userSpaceOnUse" color-interpolation-filters="sRGB">
<feFlood flood-opacity="0" result="BackgroundImageFix"/>
<feColorMatrix in="SourceAlpha" type="matrix" values="0 0 0 0 0 0 0 0 0 0 0 0 0 0 0 0 0 0 127 0" result="hardAlpha"/>
<feOffset/>
<feGaussianBlur stdDeviation="4"/>
<feComposite in2="hardAlpha" operator="out"/>
<feColorMatrix type="matrix" values="0 0 0 0 1 0 0 0 0 1 0 0 0 0 1 0 0 0 1 0"/>
<feBlend mode="normal" in2="BackgroundImageFix" result="effect1_dropShadow_179_312"/>
<feBlend mode="normal" in="SourceGraphic" in2="effect1_dropShadow_179_312" result="shape"/>
</filter>
<filter id="filter2_d_179_312" x="6.38762" y="20.5908" width="19.8789" height="19.7715" filterUnits="userSpaceOnUse" color-interpolation-filters="sRGB">
<feFlood flood-opacity="0" result="BackgroundImageFix"/>
<feColorMatrix in="SourceAlpha" type="matrix" values="0 0 0 0 0 0 0 0 0 0 0 0 0 0 0 0 0 0 127 0" result="hardAlpha"/>
<feOffset/>
<feGaussianBlur stdDeviation="4"/>
<feComposite in2="hardAlpha" operator="out"/>
<feColorMatrix type="matrix" values="0 0 0 0 1 0 0 0 0 1 0 0 0 0 1 0 0 0 1 0"/>
<feBlend mode="normal" in2="BackgroundImageFix" result="effect1_dropShadow_179_312"/>
<feBlend mode="normal" in="SourceGraphic" in2="effect1_dropShadow_179_312" result="shape"/>
</filter>
<filter id="filter3_d_179_312" x="20.2941" y="13.4888" width="21.5812" height="21.4106" filterUnits="userSpaceOnUse" color-interpolation-filters="sRGB">
<feFlood flood-opacity="0" result="BackgroundImageFix"/>
<feColorMatrix in="SourceAlpha" type="matrix" values="0 0 0 0 0 0 0 0 0 0 0 0 0 0 0 0 0 0 127 0" result="hardAlpha"/>
<feOffset/>
<feGaussianBlur stdDeviation="4"/>
<feComposite in2="hardAlpha" operator="out"/>
<feColorMatrix type="matrix" values="0 0 0 0 1 0 0 0 0 1 0 0 0 0 1 0 0 0 1 0"/>
<feBlend mode="normal" in2="BackgroundImageFix" result="effect1_dropShadow_179_312"/>
<feBlend mode="normal" in="SourceGraphic" in2="effect1_dropShadow_179_312" result="shape"/>
</filter>
<filter id="filter4_d_179_312" x="14.6937" y="0.508301" width="19.7115" height="19.793" filterUnits="userSpaceOnUse" color-interpolation-filters="sRGB">
<feFlood flood-opacity="0" result="BackgroundImageFix"/>
<feColorMatrix in="SourceAlpha" type="matrix" values="0 0 0 0 0 0 0 0 0 0 0 0 0 0 0 0 0 0 127 0" result="hardAlpha"/>
<feOffset/>
<feGaussianBlur stdDeviation="4"/>
<feComposite in2="hardAlpha" operator="out"/>
<feColorMatrix type="matrix" values="0 0 0 0 1 0 0 0 0 1 0 0 0 0 1 0 0 0 1 0"/>
<feBlend mode="normal" in2="BackgroundImageFix" result="effect1_dropShadow_179_312"/>
<feBlend mode="normal" in="SourceGraphic" in2="effect1_dropShadow_179_312" result="shape"/>
</filter>
<filter id="filter5_d_179_312" x="9.47444" y="8.63623" width="22.5404" height="22.4653" filterUnits="userSpaceOnUse" color-interpolation-filters="sRGB">
<feFlood flood-opacity="0" result="BackgroundImageFix"/>
<feColorMatrix in="SourceAlpha" type="matrix" values="0 0 0 0 0 0 0 0 0 0 0 0 0 0 0 0 0 0 127 0" result="hardAlpha"/>
<feOffset/>
<feGaussianBlur stdDeviation="4"/>
<feComposite in2="hardAlpha" operator="out"/>
<feColorMatrix type="matrix" values="0 0 0 0 1 0 0 0 0 1 0 0 0 0 1 0 0 0 1 0"/>
<feBlend mode="normal" in2="BackgroundImageFix" result="effect1_dropShadow_179_312"/>
<feBlend mode="normal" in="SourceGraphic" in2="effect1_dropShadow_179_312" result="shape"/>
</filter>
<linearGradient id="paint0_linear_179_312" x1="5.89213" y1="14.0965" x2="31.9215" y2="25.2782" gradientUnits="userSpaceOnUse">
<stop stop-color="#3894A3"/>
<stop offset="1" stop-color="#A661FF"/>
</linearGradient>
<linearGradient id="paint1_linear_179_312" x1="20.0833" y1="20.2913" x2="21.2353" y2="20.7862" gradientUnits="userSpaceOnUse">
<stop stop-color="#3894A3"/>
<stop offset="1" stop-color="#A661FF"/>
</linearGradient>
<linearGradient id="paint2_linear_179_312" x1="7.79225" y1="15.8122" x2="12.2977" y2="16.3085" gradientUnits="userSpaceOnUse">
<stop stop-color="#3894A3"/>
<stop offset="1" stop-color="#A661FF"/>
</linearGradient>
<linearGradient id="paint3_linear_179_312" x1="7.79225" y1="15.8122" x2="12.2977" y2="16.3085" gradientUnits="userSpaceOnUse">
<stop stop-color="#3894A3"/>
<stop offset="1" stop-color="#A661FF"/>
</linearGradient>
<linearGradient id="paint4_linear_179_312" x1="7.79225" y1="15.8122" x2="12.2977" y2="16.3085" gradientUnits="userSpaceOnUse">
<stop stop-color="#3894A3"/>
<stop offset="1" stop-color="#A661FF"/>
</linearGradient>
<linearGradient id="paint5_linear_179_312" x1="13.8095" y1="30.1901" x2="18.313" y2="30.7045" gradientUnits="userSpaceOnUse">
<stop stop-color="#3894A3"/>
<stop offset="1" stop-color="#A661FF"/>
</linearGradient>
<linearGradient id="paint6_linear_179_312" x1="13.8095" y1="30.1901" x2="18.313" y2="30.7045" gradientUnits="userSpaceOnUse">
<stop stop-color="#3894A3"/>
<stop offset="1" stop-color="#A661FF"/>
</linearGradient>
<linearGradient id="paint7_linear_179_312" x1="13.8095" y1="30.1901" x2="18.313" y2="30.7045" gradientUnits="userSpaceOnUse">
<stop stop-color="#3894A3"/>
<stop offset="1" stop-color="#A661FF"/>
</linearGradient>
<linearGradient id="paint8_linear_179_312" x1="27.4722" y1="23.7673" x2="33.9333" y2="24.5342" gradientUnits="userSpaceOnUse">
<stop stop-color="#3894A3"/>
<stop offset="1" stop-color="#A661FF"/>
</linearGradient>
<linearGradient id="paint9_linear_179_312" x1="27.4722" y1="23.7673" x2="33.9333" y2="24.5342" gradientUnits="userSpaceOnUse">
<stop stop-color="#3894A3"/>
<stop offset="1" stop-color="#A661FF"/>
</linearGradient>
<linearGradient id="paint10_linear_179_312" x1="27.4722" y1="23.7673" x2="33.9333" y2="24.5342" gradientUnits="userSpaceOnUse">
<stop stop-color="#3894A3"/>
<stop offset="1" stop-color="#A661FF"/>
</linearGradient>
<linearGradient id="paint11_linear_179_312" x1="22.0242" y1="10.3059" x2="26.5535" y2="10.4836" gradientUnits="userSpaceOnUse">
<stop stop-color="#3894A3"/>
<stop offset="1" stop-color="#A661FF"/>
</linearGradient>
<linearGradient id="paint12_linear_179_312" x1="22.0242" y1="10.3059" x2="26.5535" y2="10.4836" gradientUnits="userSpaceOnUse">
<stop stop-color="#3894A3"/>
<stop offset="1" stop-color="#A661FF"/>
</linearGradient>
<linearGradient id="paint13_linear_179_312" x1="22.0242" y1="10.3059" x2="26.5535" y2="10.4836" gradientUnits="userSpaceOnUse">
<stop stop-color="#3894A3"/>
<stop offset="1" stop-color="#A661FF"/>
</linearGradient>
<linearGradient id="paint14_linear_179_312" x1="16.4326" y1="19.4868" x2="24.153" y2="20.1728" gradientUnits="userSpaceOnUse">
<stop stop-color="#3894A3"/>
<stop offset="1" stop-color="#A661FF"/>
</linearGradient>
<linearGradient id="paint15_linear_179_312" x1="16.4326" y1="19.4868" x2="24.153" y2="20.1728" gradientUnits="userSpaceOnUse">
<stop stop-color="#3894A3"/>
<stop offset="1" stop-color="#A661FF"/>
</linearGradient>
<linearGradient id="paint16_linear_179_312" x1="16.4326" y1="19.4868" x2="24.153" y2="20.1728" gradientUnits="userSpaceOnUse">
<stop stop-color="#3894A3"/>
<stop offset="1" stop-color="#A661FF"/>
</linearGradient>
</defs>
</svg>
